In a village in Protestant northern Germany, on the eve of World War I, the children of a church and school run by the village schoolteacher and their families experience a series of bizarre incidents that inexplicably assume the characteristics of a punishment ritual. Who could be responsible for such bizarre transgressions? Leonie Benesch, Josef Bierbichler, and Rainer Bock star in director Michael Haneke's Palm d'Or-winning period drama. 

   General
      Format : AVI
      Format/Info : Audio Video Interleave
      File size : 1.36 GiB
      Duration : 2h 23mn
      Overall bit rate : 1 360 Kbps
      Writing library : VirtualDub build 0/release
   Video #0
      ID : 0
      Format : MPEG-4 Visual
      Format profile : AdvancedSimple@L5
      Format settings, BVOP : Yes
      Format settings, QPel : No
      Format settings, GMC : No warppoints
      Format settings, Matrix : Default (MPEG)
      Codec ID : XVID
      Codec ID/Hint : XviD
      Duration : 2h 23mn
      Bit rate : 967 Kbps
      Width : 624 pixels
      Height : 336 pixels
      Display aspect ratio : 1.857
      Frame rate : 23.976 fps
      Resolution : 24 bits
      Colorimetry : 4:2:0
      Scan type : Progressive
      Bits/(Pixel*Frame) : 0.192
      Stream size : 993 MiB (71%)
      Writing library : XviD 1.2.1 (UTC 2008-12-04)
   Audio #1
      ID : 1
      Format : AC-3
      Format/Info : Audio Coding 3
      Codec ID : 2000
      Duration : 2h 23mn
      Bit rate mode : Constant
      Bit rate : 384 Kbps
      Channel(s) : 6 channels
      Channel positions : Front: L C R, Surround: L R, LFE
      Sampling rate : 48.0 KHz
      Stream size : 394 MiB (28%)
      Alignment : Split accross interleaves
      Interleave, duration : 42 ms (1.00 video frame)
      Interleave, preload duration : 500 ms

IMDB: tt1149362

Film split in two files. Specs are the average of both.

German audio; English, Portuguese and Spanish subtitles